<svg width="31" height="38" viewBox="0 0 31 38" fill="none" xmlns="http://www.w3.org/2000/svg">
    <path d="M9.6875 15.2H11.625C12.1389 15.2 12.6317 14.9998 12.995 14.6435C13.3584 14.2872 13.5625 13.8039 13.5625 13.3C13.5625 12.7961 13.3584 12.3128 12.995 11.9565C12.6317 11.6002 12.1389 11.4 11.625 11.4H9.6875C9.17364 11.4 8.68083 11.6002 8.31748 11.9565C7.95413 12.3128 7.75 12.7961 7.75 13.3C7.75 13.8039 7.95413 14.2872 8.31748 14.6435C8.68083 14.9998 9.17364 15.2 9.6875 15.2ZM9.6875 19C9.17364 19 8.68083 19.2002 8.31748 19.5565C7.95413 19.9128 7.75 20.3961 7.75 20.9C7.75 21.4039 7.95413 21.8872 8.31748 22.2435C8.68083 22.5998 9.17364 22.8 9.6875 22.8H21.3125C21.8264 22.8 22.3192 22.5998 22.6825 22.2435C23.0459 21.8872 23.25 21.4039 23.25 20.9C23.25 20.3961 23.0459 19.9128 22.6825 19.5565C22.3192 19.2002 21.8264 19 21.3125 19H9.6875ZM31 13.186C30.9798 13.0115 30.9409 12.8395 30.8838 12.673V12.502C30.7906 12.3066 30.6663 12.1271 30.5156 11.97L18.8906 0.57C18.7305 0.422211 18.5473 0.300354 18.3481 0.209C18.2903 0.200944 18.2316 0.200944 18.1737 0.209C17.9769 0.0983084 17.7596 0.027254 17.5344 0H5.8125C4.27093 0 2.7925 0.600534 1.70244 1.66949C0.612387 2.73845 0 4.18827 0 5.7V32.3C0 33.8117 0.612387 35.2616 1.70244 36.3305C2.7925 37.3995 4.27093 38 5.8125 38H25.1875C26.7291 38 28.2075 37.3995 29.2976 36.3305C30.3876 35.2616 31 33.8117 31 32.3V13.3C31 13.3 31 13.3 31 13.186ZM19.375 6.479L24.3931 11.4H21.3125C20.7986 11.4 20.3058 11.1998 19.9425 10.8435C19.5791 10.4872 19.375 10.0039 19.375 9.5V6.479ZM27.125 32.3C27.125 32.8039 26.9209 33.2872 26.5575 33.6435C26.1942 33.9998 25.7014 34.2 25.1875 34.2H5.8125C5.29864 34.2 4.80583 33.9998 4.44248 33.6435C4.07913 33.2872 3.875 32.8039 3.875 32.3V5.7C3.875 5.19609 4.07913 4.71282 4.44248 4.3565C4.80583 4.00018 5.29864 3.8 5.8125 3.8H15.5V9.5C15.5 11.0117 16.1124 12.4616 17.2024 13.5305C18.2925 14.5995 19.7709 15.2 21.3125 15.2H27.125V32.3ZM21.3125 26.6H9.6875C9.17364 26.6 8.68083 26.8002 8.31748 27.1565C7.95413 27.5128 7.75 27.9961 7.75 28.5C7.75 29.0039 7.95413 29.4872 8.31748 29.8435C8.68083 30.1998 9.17364 30.4 9.6875 30.4H21.3125C21.8264 30.4 22.3192 30.1998 22.6825 29.8435C23.0459 29.4872 23.25 29.0039 23.25 28.5C23.25 27.9961 23.0459 27.5128 22.6825 27.1565C22.3192 26.8002 21.8264 26.6 21.3125 26.6Z" fill="#4AC0B3"/>
</svg>
