<svg width="54" height="54" viewBox="0 0 54 54" fill="none" xmlns="http://www.w3.org/2000/svg">
    <circle cx="27" cy="27" r="27" fill="#4AC0B3"/>
    <path d="M26.2865 14.4323C26.5903 13.8559 27.4097 13.8559 27.7134 14.4323L31.2765 21.1931C31.3933 21.4147 31.6049 21.5696 31.85 21.6131L39.3313 22.9389C39.969 23.052 40.2223 23.8374 39.7722 24.3066L34.4931 29.8109C34.32 29.9913 34.2392 30.242 34.274 30.4904L35.3346 38.0707C35.425 38.7168 34.7621 39.2023 34.1802 38.9159L27.3545 35.5569C27.1308 35.4468 26.8692 35.4468 26.6455 35.5569L19.8198 38.9159C19.2379 39.2023 18.575 38.7169 18.6654 38.0707L19.726 30.4904C19.7608 30.242 19.6799 29.9913 19.5069 29.8109L14.2278 24.3066C13.7777 23.8374 14.031 23.052 14.6687 22.9389L22.15 21.6131C22.3951 21.5696 22.6067 21.4147 22.7235 21.1931L26.2865 14.4323Z" fill="white"/>
</svg>
