<svg xmlns="http://www.w3.org/2000/svg" display="none">

    <symbol id="burger" viewBox="0 0 43 40">
        <path d="M0 4.28571C0 1.91878 1.95781 0 4.37288 0H38.6271C41.0422 0 43 1.91878 43 4.28571C43 6.65265 41.0422 8.57143 38.6271 8.57143H4.37288C1.95781 8.57143 0 6.65265 0 4.28571Z"/>
        <path d="M0 20C0 17.6331 1.95781 15.7143 4.37288 15.7143H38.6271C41.0422 15.7143 43 17.6331 43 20C43 22.3669 41.0422 24.2857 38.6271 24.2857H4.37288C1.95781 24.2857 0 22.3669 0 20Z"/>
        <path d="M0 35.7143C0 33.3474 1.95781 31.4286 4.37288 31.4286H38.6271C41.0422 31.4286 43 33.3474 43 35.7143C43 38.0812 41.0422 40 38.6271 40H4.37288C1.95781 40 0 38.0812 0 35.7143Z"/>
    </symbol>


    <symbol id="location" viewBox="0 0 32 39">
        <path fill-rule="evenodd" clip-rule="evenodd"
              d="M16 39C19.84 39 32 25.2246 32 16.25C32 7.27537 24.8366 0 16 0C7.16344 0 0 7.27537 0 16.25C0 25.2246 12.16 39 16 39ZM16 22.1C19.1812 22.1 21.76 19.4809 21.76 16.25C21.76 13.0191 19.1812 10.4 16 10.4C12.8188 10.4 10.24 13.0191 10.24 16.25C10.24 19.4809 12.8188 22.1 16 22.1Z"/>
    </symbol>

    <symbol id="arrow-bottom" viewBox="0 0 26 15">
        <path d="M2 2L13 13L24 2" stroke-width="3" stroke-linecap="round" stroke-linejoin="round"/>
    </symbol>

    <symbol id="prev" viewBox="0 0 14 23">
        <path d="M12 2L2 11.5L12 21" stroke-width="3" stroke-linecap="round" stroke-linejoin="round"/>
    </symbol>

    <symbol id="next" viewBox="0 0 14 23">
        <path d="M2 21L12 11.5L2 2" stroke-width="3" stroke-linecap="round" stroke-linejoin="round"/>
    </symbol>

    <symbol id="link" viewBox="0 0 15 15">
        <path fill-rule="evenodd" clip-rule="evenodd"
              d="M2.59326 0C2.22778 0 1.9315 0.296278 1.9315 0.661756C1.9315 1.02723 2.22778 1.32351 2.59326 1.32351H12.7406L0.193824 13.8702C-0.0646078 14.1287 -0.0646081 14.5477 0.193824 14.8061C0.452256 15.0645 0.871257 15.0645 1.12969 14.8061L13.6225 2.31328V12.3528C13.6225 12.7183 13.9188 13.0145 14.2843 13.0145C14.6498 13.0145 14.946 12.7183 14.946 12.3528V0.661756C14.946 0.296278 14.6498 0 14.2843 0H2.59326Z"/>
    </symbol>

</svg>