<svg xmlns="http://www.w3.org/2000/svg" display="none">

    <symbol id="burger" viewBox="0 0 43 40">
        <path d="M0 4.28571C0 1.91878 1.95781 0 4.37288 0H38.6271C41.0422 0 43 1.91878 43 4.28571C43 6.65265 41.0422 8.57143 38.6271 8.57143H4.37288C1.95781 8.57143 0 6.65265 0 4.28571Z"/>
        <path d="M0 20C0 17.6331 1.95781 15.7143 4.37288 15.7143H38.6271C41.0422 15.7143 43 17.6331 43 20C43 22.3669 41.0422 24.2857 38.6271 24.2857H4.37288C1.95781 24.2857 0 22.3669 0 20Z"/>
        <path d="M0 35.7143C0 33.3474 1.95781 31.4286 4.37288 31.4286H38.6271C41.0422 31.4286 43 33.3474 43 35.7143C43 38.0812 41.0422 40 38.6271 40H4.37288C1.95781 40 0 38.0812 0 35.7143Z"/>
    </symbol>


    <symbol id="location" viewBox="0 0 32 39">
        <path fill-rule="evenodd" clip-rule="evenodd"
              d="M16 39C19.84 39 32 25.2246 32 16.25C32 7.27537 24.8366 0 16 0C7.16344 0 0 7.27537 0 16.25C0 25.2246 12.16 39 16 39ZM16 22.1C19.1812 22.1 21.76 19.4809 21.76 16.25C21.76 13.0191 19.1812 10.4 16 10.4C12.8188 10.4 10.24 13.0191 10.24 16.25C10.24 19.4809 12.8188 22.1 16 22.1Z"/>
    </symbol>

    <symbol id="arrow-bottom" viewBox="0 0 26 15">
        <path d="M2 2L13 13L24 2" stroke-width="3" stroke-linecap="round" stroke-linejoin="round"/>
    </symbol>

    <symbol id="prev" viewBox="0 0 14 23">
        <path d="M12 2L2 11.5L12 21" stroke-width="3" stroke-linecap="round" stroke-linejoin="round"/>
    </symbol>

    <symbol id="next" viewBox="0 0 14 23">
        <path d="M2 21L12 11.5L2 2" stroke-width="3" stroke-linecap="round" stroke-linejoin="round"/>
    </symbol>

    <symbol id="link" viewBox="0 0 15 15">
        <path fill-rule="evenodd" clip-rule="evenodd"
              d="M2.59326 0C2.22778 0 1.9315 0.296278 1.9315 0.661756C1.9315 1.02723 2.22778 1.32351 2.59326 1.32351H12.7406L0.193824 13.8702C-0.0646078 14.1287 -0.0646081 14.5477 0.193824 14.8061C0.452256 15.0645 0.871257 15.0645 1.12969 14.8061L13.6225 2.31328V12.3528C13.6225 12.7183 13.9188 13.0145 14.2843 13.0145C14.6498 13.0145 14.946 12.7183 14.946 12.3528V0.661756C14.946 0.296278 14.6498 0 14.2843 0H2.59326Z"/>
    </symbol>

    <symbol id="plus" viewBox="0 0 38 38">
        <path d="M24.725 15.2422H19.0284V9.54129C19.0284 9.03729 18.8283 8.55394 18.4722 8.19756C18.1161 7.84118 17.6331 7.64097 17.1295 7.64097C16.6259 7.64097 16.1429 7.84118 15.7868 8.19756C15.4307 8.55394 15.2307 9.03729 15.2307 9.54129V15.2422H9.53404C9.03043 15.2422 8.54745 15.4424 8.19134 15.7988C7.83523 16.1552 7.63517 16.6385 7.63517 17.1425C7.63517 17.6465 7.83523 18.1299 8.19134 18.4863C8.54745 18.8426 9.03043 19.0429 9.53404 19.0429H15.2307V24.7438C15.2307 25.2478 15.4307 25.7311 15.7868 26.0875C16.1429 26.4439 16.6259 26.6441 17.1295 26.6441C17.6331 26.6441 18.1161 26.4439 18.4722 26.0875C18.8283 25.7311 19.0284 25.2478 19.0284 24.7438V19.0429H24.725C25.2286 19.0429 25.7116 18.8426 26.0677 18.4863C26.4238 18.1299 26.6239 17.6465 26.6239 17.1425C26.6239 16.6385 26.4238 16.1552 26.0677 15.7988C25.7116 15.4424 25.2286 15.2422 24.725 15.2422ZM37.4664 34.7965L30.4216 27.8033C33.1562 24.3911 34.4805 20.0601 34.1222 15.7008C33.7639 11.3415 31.7502 7.2852 28.4953 4.36606C25.2403 1.44691 20.9915 -0.113239 16.6224 0.00640589C12.2533 0.12605 8.09607 1.91639 5.0055 5.00931C1.91494 8.10222 0.125955 12.2626 0.00640102 16.635C-0.113153 21.0074 1.44581 25.2595 4.36274 28.5169C7.27967 31.7743 11.3328 33.7895 15.6889 34.1481C20.0449 34.5067 24.3726 33.1814 27.7822 30.4447L34.77 37.4379C34.9466 37.616 35.1566 37.7574 35.388 37.8539C35.6194 37.9503 35.8676 38 36.1182 38C36.3689 38 36.6171 37.9503 36.8485 37.8539C37.0799 37.7574 37.2899 37.616 37.4664 37.4379C37.8087 37.0835 38 36.61 38 36.1172C38 35.6244 37.8087 35.1508 37.4664 34.7965ZM17.1295 30.4447C14.5006 30.4447 11.9307 29.6646 9.74483 28.2029C7.55896 26.7413 5.85528 24.6637 4.84923 22.2331C3.84318 19.8024 3.57995 17.1278 4.09283 14.5474C4.60571 11.967 5.87166 9.59681 7.7306 7.73647C9.58953 5.87612 11.958 4.60921 14.5364 4.09594C17.1148 3.58267 19.7874 3.8461 22.2162 4.85291C24.645 5.85973 26.7209 7.5647 28.1815 9.75224C29.6421 11.9398 30.4216 14.5116 30.4216 17.1425C30.4216 20.6705 29.0212 24.054 26.5285 26.5486C24.0357 29.0433 20.6548 30.4447 17.1295 30.4447Z"/>
    </symbol>


</svg>