<svg width="36" height="23" viewBox="0 0 36 23" fill="none" xmlns="http://www.w3.org/2000/svg">
    <path d="M18 0C9.92291 0 3.77673 5.02386 0 11.5C3.77673 17.9761 9.92291 23 18 23C26.0771 23 32.2249 17.9761 36 11.5C32.2249 5.02386 26.0755 0 18 0ZM18 19.7143C10.9473 19.7143 6.53073 15.2572 3.888 11.5C6.53073 7.74279 10.9473 3.28571 18 3.28571C25.0544 3.28571 29.4709 7.74279 32.112 11.5C29.4709 15.2572 25.0544 19.7143 18 19.7143Z" fill="white"/>
    <path d="M18 16.4286C20.7112 16.4286 22.9091 14.222 22.9091 11.5C22.9091 8.77804 20.7112 6.57144 18 6.57144C15.2888 6.57144 13.0909 8.77804 13.0909 11.5C13.0909 14.222 15.2888 16.4286 18 16.4286Z" fill="white"/>
</svg>
